<svg id="Layer_1" data-name="Layer 1" xmlns="http://www.w3.org/2000/svg" width="3in" height="3in" viewBox="0 0 216 216"><path d="M12.6,17.9a6.6,6.6,0,0,0,0,13.2H39.2C50.3,58.5,61.2,85.7,72,113L61.8,137.2a6.1,6.1,0,0,0,.7,6.2,6.5,6.5,0,0,0,5.5,2.9H178.8a6.8,6.8,0,0,0,6.6-6.6,6.9,6.9,0,0,0-6.6-6.6H78l5.8-13.7L190.6,111a6.8,6.8,0,0,0,6-5.1L209.9,48a6.9,6.9,0,0,0-6.4-8.2H57L49.9,21.9a7.2,7.2,0,0,0-6.2-4ZM62.3,53.4H194.8L184.4,98.2l-100.8,8Zm27.9,97.5A22.2,22.2,0,1,0,112.4,173,22.2,22.2,0,0,0,90.2,150.9Zm66.5,0a22.2,22.2,0,1,0,22.2,22.2A22.3,22.3,0,0,0,156.7,150.9ZM90.2,164.2a8.9,8.9,0,1,1-8.9,8.9A8.9,8.9,0,0,1,90.2,164.2Zm66.5,0a8.9,8.9,0,1,1-8.9,8.9A8.9,8.9,0,0,1,156.7,164.2Z"/></svg>