<svg xmlns="http://www.w3.org/2000/svg"><symbol id="blackberry" viewBox="0 0 216 216"><circle cx="91.8" cy="39.5" r="28.9"/><circle cx="129.3" cy="38.9" r="28.9"/><circle cx="142.9" cy="68.6" r="28.9"/><circle cx="78.1" cy="65.7" r="28.9"/><circle cx="68.2" cy="106.6" r="28.9"/><circle cx="87.9" cy="144.7" r="28.9"/><circle cx="148.6" cy="103.8" r="28.9"/><circle cx="138.1" cy="142.9" r="28.9"/><circle cx="44.9" cy="46.3" r="28.9" fill="#a364a9"/><circle cx="170.4" cy="47.7" r="28.9" fill="#a364a9"/><circle cx="32.2" cy="80.1" r="28.9" fill="#a364a9"/><circle cx="40.6" cy="119.6" r="28.9" fill="#a364a9"/><circle cx="61.8" cy="166.1" r="28.9" fill="#a364a9"/><circle cx="184.9" cy="82.2" r="28.9" fill="#a364a9"/><circle cx="102.2" cy="78.9" r="28.9" fill="#a364a9"/><circle cx="111.2" cy="51.7" r="28.9" fill="#a364a9"/><circle cx="120.7" cy="109.7" r="28.9" fill="#a364a9"/><circle cx="179" cy="127.6" r="28.9" fill="#a364a9"/><circle cx="155.5" cy="168.6" r="28.9" fill="#a364a9"/><circle cx="104.2" cy="131.5" r="28.9" fill="#a364a9"/><circle cx="105" cy="165.6" r="28.9" fill="#a364a9"/><circle cx="113.8" cy="180" r="28.9" fill="#a364a9"/><circle cx="77.7" cy="172.2" r="6.3"/><circle cx="44" cy="102.3" r="6.3"/><circle cx="51.7" cy="64.4" r="6.3"/><circle cx="26" cy="121.9" r="6.3"/><circle cx="96.2" cy="119.3" r="6.3"/><circle cx="104.2" cy="155.9" r="6.3"/><circle cx="119.9" cy="131.5" r="6.3"/><circle cx="143.7" cy="164.2" r="6.3"/><circle cx="203.1" cy="82.8" r="6.3"/><circle cx="183.6" cy="109.1" r="6.3"/><circle cx="132.4" cy="102.8" r="6.3"/><circle cx="96.5" cy="75.6" r="6.3"/><circle cx="122.4" cy="64" r="6.3"/><circle cx="107.9" cy="43.5" r="6.3"/><circle cx="20.8" cy="81.7" r="6.3"/><circle cx="30.6" cy="47.7" r="6.3"/><circle cx="170.7" cy="171.2" r="6.3"/><circle cx="196.1" cy="138.3" r="6.3"/><circle cx="168" cy="134.7" r="6.3"/><circle cx="49.3" cy="165.3" r="6.3"/><circle cx="56.8" cy="129.7" r="6.3"/><circle cx="115.8" cy="191.4" r="6.3"/><circle cx="171.6" cy="78.4" r="6.3"/><circle cx="188.3" cy="46.6" r="6.3"/><circle cx="164.8" cy="31.2" r="6.3"/><circle cx="54.1" cy="32.5" r="6.3"/></symbol><symbol id="blueberry" viewBox="0 0 216 216"><circle cx="109.1" cy="110.7" r="102.6" fill="#3ca1bc"/><path fill="#13474c" d="M42.2 34.5s44.5-31.2 71.9 15.2C82.3 35.3 50.6 30.6 42.2 34.5z"/><path fill="#13474c" d="M70.8 63.4c13.8-14.8 50.6-42.2 87.6-.5-46.1-25.3-72.8-7.3-87.6.5z"/><path fill="#13474c" d="M82.2 12s44.4-7.9 31.4 37.5C103.5 28.6 89.3 12.1 82.2 12z"/><path fill="#13474c" d="M154.8 18.9s-43-17.1-41.2 30.9c15.7-22.4 33.9-32.3 41.2-30.9z"/><path fill="#13474c" d="M113.6 49.7s33.7-46.9 73.4-4.3c-33.2-10.1-66.4-2.4-73.4 4.3zM76.7 13.3c-98 48.3-79.7 197.3 67.7 194C11.8 252.1-54.2 57.9 76.7 13.3z"/><path fill="#fff" d="M152.9 41c31.3 35.7 33.2 91.2 4.3 130.8 43.4-24.2 43.4-113.9-4.3-130.8z"/></symbol><symbol id="apple" viewBox="0 0 216 216"><path fill="#a7cf39" d="M203.5 115.3c-11.8 54.2-70.5 115.1-99.4 93.8-25.3 20.9-80.3-38.2-92.4-92.3S49.1 3.2 104.4 37.3c68.9-30.1 110.7 24.5 99.1 78z"/><path fill="#05773d" d="M76.7 2.5s36.9 12.1 31.3 39.6C77.8 27.6 81.3 3.9 76.7 2.5zM55.4 29.8c-97.4 44-8.8 187.4 49 179.3-42.5 33-158.5-134.6-49-179.3z"/><path fill="#fff" d="M145.8 47.2c30.7 34.9 32.6 89.2 4.3 127.9 42.5-23.6 42.5-111.4-4.3-127.9z"/></symbol><symbol id="raspberry" viewBox="0 0 216 216"><circle cx="90.5" cy="38.1" r="28.9" fill="#b01e48"/><circle cx="128" cy="37.5" r="28.9" fill="#b01e48"/><circle cx="141.7" cy="67.1" r="28.9" fill="#b01e48"/><circle cx="76.8" cy="64.3" r="28.9" fill="#b01e48"/><circle cx="66.9" cy="105.2" r="28.9" fill="#b01e48"/><circle cx="86.7" cy="143.3" r="28.9" fill="#b01e48"/><circle cx="147.3" cy="102.4" r="28.9" fill="#b01e48"/><circle cx="136.8" cy="141.5" r="28.9" fill="#b01e48"/><circle cx="43.6" cy="44.8" r="28.9" fill="#e25d86"/><circle cx="169.1" cy="46.2" r="28.9" fill="#e25d86"/><circle cx="30.9" cy="78.7" r="28.9" fill="#e25d86"/><circle cx="39.4" cy="118.2" r="28.9" fill="#e25d86"/><circle cx="60.5" cy="164.7" r="28.9" fill="#e25d86"/><circle cx="183.6" cy="80.8" r="28.9" fill="#e25d86"/><circle cx="100.9" cy="77.5" r="28.9" fill="#e25d86"/><circle cx="109.9" cy="50.2" r="28.9" fill="#e25d86"/><circle cx="119.4" cy="108.3" r="28.9" fill="#e25d86"/><circle cx="177.7" cy="126.2" r="28.9" fill="#e25d86"/><circle cx="154.2" cy="167.2" r="28.9" fill="#e25d86"/><circle cx="103" cy="130" r="28.9" fill="#e25d86"/><circle cx="103.8" cy="164.2" r="28.9" fill="#e25d86"/><circle cx="112.5" cy="178.6" r="28.9" fill="#e25d86"/><circle cx="76.4" cy="170.8" r="6.3" fill="#b01e48"/><circle cx="42.8" cy="100.9" r="6.3" fill="#b01e48"/><circle cx="50.4" cy="62.9" r="6.3" fill="#b01e48"/><circle cx="24.8" cy="120.5" r="6.3" fill="#b01e48"/><circle cx="94.9" cy="117.8" r="6.3" fill="#b01e48"/><circle cx="102.9" cy="154.5" r="6.3" fill="#b01e48"/><circle cx="118.6" cy="130.1" r="6.3" fill="#b01e48"/><circle cx="142.4" cy="162.7" r="6.3" fill="#b01e48"/><circle cx="201.8" cy="81.3" r="6.3" fill="#b01e48"/><circle cx="182.3" cy="107.7" r="6.3" fill="#b01e48"/><circle cx="131.2" cy="101.3" r="6.3" fill="#b01e48"/><circle cx="95.3" cy="74.2" r="6.3" fill="#b01e48"/><circle cx="121.2" cy="62.6" r="6.3" fill="#b01e48"/><circle cx="106.7" cy="42" r="6.3" fill="#b01e48"/><circle cx="19.6" cy="80.2" r="6.3" fill="#b01e48"/><circle cx="29.3" cy="46.3" r="6.3" fill="#b01e48"/><circle cx="169.4" cy="169.7" r="6.3" fill="#b01e48"/><circle cx="194.8" cy="136.9" r="6.3" fill="#b01e48"/><circle cx="166.7" cy="133.3" r="6.3" fill="#b01e48"/><circle cx="48" cy="163.9" r="6.3" fill="#b01e48"/><circle cx="55.5" cy="128.3" r="6.3" fill="#b01e48"/><circle cx="114.5" cy="190" r="6.3" fill="#b01e48"/><circle cx="170.4" cy="77" r="6.3" fill="#b01e48"/><circle cx="187" cy="45.2" r="6.3" fill="#b01e48"/><circle cx="163.5" cy="29.7" r="6.3" fill="#b01e48"/><circle cx="52.8" cy="31.1" r="6.3" fill="#b01e48"/></symbol><symbol id="cart" viewBox="0 0 216 216"><path d="M12.6 17.9c-3.8 0-6.6 2.9-6.6 6.6s2.9 6.6 6.6 6.6h26.6C50.3 58.5 61.2 85.7 72 113l-10.2 24.2c-.9 2-.7 4.4.7 6.2 1.1 1.8 3.3 2.9 5.5 2.9h110.8c3.5 0 6.6-3.1 6.6-6.6s-3.3-6.6-6.6-6.6H78l5.8-13.7 106.8-8.4c2.9-.2 5.3-2.4 6-5.1L209.9 48c.9-4-2.4-8.2-6.4-8.2H57l-7.1-17.9c-1.1-2.2-3.5-4-6.2-4H12.6zm49.7 35.5h132.5l-10.4 44.8-100.8 8-21.3-52.8zm27.9 97.5C78 150.9 68 160.8 68 173s10 22.2 22.2 22.2 22.2-10 22.2-22.2-10-22.1-22.2-22.1zm66.5 0c-12.2 0-22.2 10-22.2 22.2s10 22.2 22.2 22.2 22.2-10 22.2-22.2c-.1-12.3-10-22.2-22.2-22.2zm-66.5 13.3c4.9 0 8.9 4 8.9 8.9s-4 8.9-8.9 8.9-8.9-4-8.9-8.9 4-8.9 8.9-8.9zm66.5 0c4.9 0 8.9 4 8.9 8.9s-4 8.9-8.9 8.9-8.9-4-8.9-8.9 4-8.9 8.9-8.9z"/></symbol><symbol id="fb" viewBox="0 0 139.2 223.2"><path d="M46.2 217.7l.3-98.2-33.5.5V81.6s34 1.9 33.9.9C44.3 33.4 46-3.1 123.6 5.8l.5 33.9c-40.2.9-40.2-7.2-38.8 42.4l36.2.5-4.1 38.4-33-.9v97.7z"/></symbol><symbol id="gooseberry" viewBox="0 0 216 216"><path fill="#685120" d="M110.7 186.2s10.6 63.4 14.1-.7z"/><ellipse cx="112.4" cy="97.2" fill="#d0dd9a" rx="86.6" ry="89.3"/><path fill="#a7cf39" d="M85.1 12.5c-82.8 42-67.3 171.7 57.1 168.8-112 38.9-167.7-130-57.1-168.8z"/><path fill="#fff" d="M149.4 36.6c26.4 31.1 28.1 79.4 3.6 113.8 36.7-21 36.7-99.1-3.6-113.8z"/><path fill="none" stroke="#d0dd9a" stroke-miterlimit="10" stroke-width="1.95" d="M77.6 21.6L65.5 10.8m20.8 6l-3-8.7M101 9.4l-2-7.1m12 7.1l3-6.6m17.7 8.2l1.9-7.9m8.9 11l6.1-4.2m4 10.3l4.4-6.9m2.9 11.1l9.6-3.4m-.6 11.3l2.4-4.4m2.7 9.7l9.7-.5m-1.3 10.6l3.7-3.8m.8 11.9h6.6m-2.9 10.4l6.3-.8m-2.4 13.5l7.7-6.6m-5.5 14.2l4.4-.3m-4.4 8.5l5.7 1.5m-6.5 8l6.5 1.1m-7 9.8l3.9-.3m-5.8 4.8l5.2 5.4m-9 5.1l5.6 1.9m-6.9 3.6l4.8 4.8m-11.1 5.6l6.6.5m-9.7 4l5.3 6.8m-13.3 2.4l5.1 2.9m-10.3.8l1.5 5.8m-9 2.6l5.6 4m-12.4-2.1l-1.3 7.6m-9.1-1.9l3 4.9m-8.5-5.4l-.8 8.2"/><path fill="none" stroke="#a7cf39" stroke-miterlimit="10" stroke-width="1.95" d="M59.3 27.6l-.4-6.6m-5.6 11.9l-9.1-.3m-2.8 12.2l-3.1-6.6M37 52.7l-5.3-3.5m2.2 10.7L25.4 63m4.7 9.7h-5.3M27.3 84L22 80.9m4.7 10.9l-7.2.3m8.4 7.9l-4.4 5m6 6.9l-11.3-.3m12.2 6.2l-6.5 4.1m8.7 3.8l-4.7 9.7m11.3 3.4l-6.9 1.6m9.4 4.4l-5.9 5m10.6 1.6l-3.4 9m11.6.7l-6 3.4m11.3.6l-2.8 11m12.8-4.1l-5 7.6m13.8-1.6l.3 13.8m11.3-10l-4.1 6.2m11.3-4.4l1.6 7.2m8.7-6.9l-.6 8.2m9.1-7.5l5 7.8m6.6-8.1v3.7"/></symbol><symbol id="strawberry" viewBox="0 0 216 216"><path fill="#ee2626" d="M194.8 203.4c-33.1 27-92.8-1-152.7-34.1C1.7 147-2.2 91 33.5 63.1a22.5 22.5 0 0 1 6.6-3.7l23.5-8.6a24.3 24.3 0 0 0 3.8-3.3l8.4-18.7a13.3 13.3 0 0 1 2.2-3.4c31.2-33.5 87.3-22.2 102.6 21.4 23.5 66.7 40.4 129 16.2 154.6z"/><ellipse cx="158.9" cy="94.7" rx="2.6" ry="5.5" transform="rotate(-10.3 158.676 94.837)"/><ellipse cx="153.8" cy="115.1" rx="2.6" ry="5.5" transform="rotate(-30 153.734 115.193)"/><ellipse cx="142.3" cy="80.4" rx="2.6" ry="5.5" transform="rotate(-20.4 140.2 79.626)"/><ellipse cx="112.8" cy="36.4" rx="2.6" ry="5.5" transform="rotate(-87.1 112.823 36.361)"/><ellipse cx="142.8" cy="59.7" rx="2.6" ry="5.5" transform="rotate(-30 142.812 59.666)"/><ellipse cx="125.1" cy="78.2" rx="5.5" ry="2.6" transform="rotate(-86.1 125.018 78.297)"/><ellipse cx="146.1" cy="35" rx="2.6" ry="5.5" transform="rotate(-60 146.058 35.02)"/><ellipse cx="160.1" cy="29.6" rx="2.6" ry="5.5" transform="rotate(-66.3 159.951 29.66)"/><ellipse cx="142.6" cy="17.2" rx="2.6" ry="5.5" transform="rotate(-68.9 142.557 17.19)"/><ellipse cx="126.9" cy="24.5" rx="2.6" ry="5.5" transform="rotate(-71.2 126.82 24.56)"/><ellipse cx="131.8" cy="41.2" rx="2.6" ry="5.5" transform="rotate(-15.9 131.521 40.998)"/><ellipse cx="116.5" cy="14.1" rx="5.5" ry="2.6"/><ellipse cx="155.5" cy="48.6" rx="2.6" ry="5.5" transform="rotate(-30 155.556 48.681)"/><ellipse cx="158.1" cy="71.4" rx="2.6" ry="5.5" transform="rotate(-6.5 157.637 70.787)"/><ellipse cx="121.4" cy="57.9" rx="2.6" ry="5.5" transform="rotate(-45 121.39 57.918)"/><ellipse cx="102.6" cy="45" rx="2.6" ry="5.5" transform="rotate(-63 102.597 45.027)"/><ellipse cx="103.3" cy="26.4" rx="5.5" ry="2.6" transform="rotate(-11.9 103.464 26.302)"/><ellipse cx="85.3" cy="40.6" rx="5.5" ry="2.6" transform="rotate(-80.5 85.353 40.623)"/><ellipse cx="140.7" cy="97.3" rx="2.6" ry="5.5" transform="rotate(-20 140.725 97.324)"/><ellipse cx="31.8" cy="152" rx="2.6" ry="5.5" transform="rotate(-54.7 31.796 151.963)"/><ellipse cx="77.7" cy="104.1" rx="2.6" ry="5.5" transform="rotate(-35 78.059 104.703)"/><ellipse cx="88.1" cy="140.1" rx="2.6" ry="5.5" transform="rotate(-21.8 88.229 140.318)"/><ellipse cx="43.4" cy="90.6" rx="5.5" ry="2.6" transform="rotate(-69.8 43.373 90.567)"/><ellipse cx="56.3" cy="130" rx="2.6" ry="5.5" transform="rotate(-53.5 56.166 129.945)"/><ellipse cx="93.4" cy="125" rx="2.6" ry="5.5" transform="rotate(-39.5 93.31 125)"/><ellipse cx="32.4" cy="121.7" rx="2.6" ry="5.5" transform="rotate(-10.5 32.682 122.08)"/><ellipse cx="22.1" cy="136.4" rx="2.6" ry="5.5" transform="rotate(-17.6 22.16 136.711)"/><ellipse cx="16.4" cy="113.2" rx="2.6" ry="5.5" transform="rotate(-3.4 16.916 111.789)"/><ellipse cx="25.5" cy="101.5" rx="5.5" ry="2.6" transform="rotate(-68.7 25.473 101.557)"/><ellipse cx="45.4" cy="110.9" rx="2.6" ry="5.5" transform="rotate(-2.6 45.973 111.265)"/><ellipse cx="27.8" cy="83.5" rx="5.5" ry="2.6" transform="rotate(-57.7 27.835 83.479)"/><ellipse cx="41.4" cy="137.8" rx="2.6" ry="5.5" transform="rotate(-41.5 41.241 137.716)"/><ellipse cx="56.7" cy="148.7" rx="2.6" ry="5.5" transform="rotate(-60.7 56.734 148.691)"/><ellipse cx="73.9" cy="126.9" rx="2.6" ry="5.5" transform="rotate(-58.5 73.991 126.936)"/><ellipse cx="61.1" cy="108.5" rx="2.6" ry="5.5" transform="rotate(-11.3 61.211 108.635)"/><ellipse cx="60" cy="87.4" rx="5.5" ry="2.6" transform="rotate(-82.9 60.009 87.462)"/><ellipse cx="76.9" cy="85.1" rx="2.6" ry="5.5" transform="rotate(-35.1 76.777 84.976)"/><ellipse cx="84.8" cy="63.4" rx="5.5" ry="2.6" transform="rotate(-60 84.77 63.375)"/><ellipse cx="100.7" cy="66.1" rx="2.6" ry="5.5" transform="rotate(-35.1 100.503 66.045)"/><ellipse cx="96.1" cy="84.7" rx="2.6" ry="5.5" transform="rotate(-60 96.073 84.797)"/><ellipse cx="115.7" cy="89.3" rx="2.6" ry="5.5" transform="rotate(-54 115.908 89.342)"/><ellipse cx="111.1" cy="109.1" rx="2.6" ry="5.5" transform="rotate(-53 110.926 109.022)"/><ellipse cx="121.3" cy="125.7" rx="2.6" ry="5.5" transform="rotate(-35.1 121.141 125.615)"/><ellipse cx="128" cy="148.3" rx="2.6" ry="5.5" transform="rotate(-35.1 127.73 148.221)"/><ellipse cx="131.9" cy="111.9" rx="2.6" ry="5.5" transform="rotate(-52.7 132.01 111.9)"/><ellipse cx="139.4" cy="134.4" rx="2.6" ry="5.5" transform="rotate(-8.9 139.505 134.313)"/><ellipse cx="157.6" cy="134" rx="2.6" ry="5.5" transform="rotate(-35.1 157.297 133.92)"/><ellipse cx="141.2" cy="162.1" rx="2.6" ry="5.5" transform="rotate(-60 141.163 162.099)"/><ellipse cx="155.8" cy="155.1" rx="2.6" ry="5.5" transform="rotate(-51.7 155.645 155.05)"/><ellipse cx="173" cy="153.8" rx="2.6" ry="5.5" transform="rotate(-8.1 172.294 152.723)"/><ellipse cx="172.5" cy="176" rx="2.6" ry="5.5" transform="rotate(-45 172.433 176.076)"/><ellipse cx="189.8" cy="180.2" rx="5.5" ry="2.6" transform="rotate(-83.1 189.974 180.257)"/><ellipse cx="155.3" cy="177.6" rx="2.6" ry="5.5" transform="rotate(-37.1 155.555 177.695)"/><ellipse cx="158.5" cy="194.1" rx="2.6" ry="5.5" transform="rotate(-60 158.51 194.053)"/><ellipse cx="178.4" cy="204.7" rx="5.5" ry="2.6" transform="rotate(-11.7 177.816 204.128)"/><ellipse cx="177.2" cy="193.8" rx="2.6" ry="5.5" transform="rotate(-83.1 177.23 193.842)"/><ellipse cx="194.7" cy="193.6" rx="5.5" ry="2.6" transform="rotate(-67.4 194.64 193.608)"/><ellipse cx="94.1" cy="104" rx="2.6" ry="5.5" transform="rotate(-15.5 94.344 104.144)"/><ellipse cx="48.5" cy="74.2" rx="5.5" ry="2.6" transform="rotate(-22.1 48.274 74.016)"/><ellipse cx="66.7" cy="69.7" rx="5.5" ry="2.6" transform="rotate(-30 66.73 69.68)"/><ellipse cx="108.2" cy="140.3" rx="2.6" ry="5.5" transform="matrix(.93 -.38 .38 .93 -44.87 51.09)"/><ellipse cx="134.5" cy="183.6" rx="2.6" ry="5.5" transform="rotate(-57.3 133.69 183.568)"/><ellipse cx="137.4" cy="201.2" rx="2.6" ry="5.5" transform="rotate(-60 137.43 201.166)"/><ellipse cx="111.4" cy="177.6" rx="2.6" ry="5.5" transform="rotate(-46.9 111.523 177.662)"/><ellipse cx="77.3" cy="154.3" rx="2.6" ry="5.5" transform="rotate(-36.5 77.344 154.45)"/><ellipse cx="100.1" cy="154.4" rx="2.6" ry="5.5" transform="rotate(-38.2 100.122 154.494)"/><ellipse cx="95.1" cy="186.8" rx="2.6" ry="5.5" transform="rotate(-72.5 95.126 186.87)"/><ellipse cx="73.1" cy="174.2" rx="2.6" ry="5.5" transform="rotate(-42.5 73.153 174.246)"/><ellipse cx="158.9" cy="207" rx="2.6" ry="5.5" transform="rotate(-60 158.849 207.066)"/><ellipse cx="124.1" cy="163.3" rx="2.6" ry="5.5" transform="rotate(-49.8 124.347 163.377)"/><ellipse cx="91.5" cy="169.3" rx="2.6" ry="5.5" transform="rotate(-56.6 91.604 169.346)"/><ellipse cx="52.9" cy="164.8" rx="2.6" ry="5.5" transform="rotate(-38.6 53.01 164.906)"/><ellipse cx="117.6" cy="193.5" rx="2.6" ry="5.5" transform="rotate(-56.6 117.627 193.539)"/><ellipse cx="173" cy="101.1" rx="2.6" ry="5.5" transform="rotate(-7.6 172.51 100.679)"/><ellipse cx="172.8" cy="80" rx="2.6" ry="5.5" transform="rotate(-7.6 171.652 79.45)"/><ellipse cx="185.1" cy="125.1" rx="2.6" ry="5.5" transform="rotate(-17.5 184.636 124.858)"/><ellipse cx="200.7" cy="154.2" rx="2.6" ry="5.5" transform="rotate(-19.8 200.682 154.29)"/><ellipse cx="183.3" cy="144.1" rx="2.6" ry="5.5" transform="rotate(-8.8 183.093 143.512)"/><ellipse cx="188.7" cy="161" rx="2.6" ry="5.5" transform="rotate(-23.6 188.899 161.107)"/><ellipse cx="168.6" cy="126.6" rx="2.6" ry="5.5" transform="translate(-7.88 11.24)"/><ellipse cx="198.1" cy="134.5" rx="2.6" ry="5.5" transform="rotate(-27.2 198.036 134.543)"/><ellipse cx="201.4" cy="175.7" rx="5.5" ry="2.6" transform="rotate(-87.9 201.367 175.706)"/><ellipse cx="187.3" cy="105.9" rx="2.6" ry="5.5" transform="rotate(-11.4 186.765 105.66)"/><ellipse cx="196.6" cy="117.1" rx="2.6" ry="5.5" transform="rotate(-11.4 196.284 116.73)"/><ellipse cx="187.1" cy="84.8" rx="2.6" ry="5.5" transform="rotate(-11.4 186.811 84.923)"/><ellipse cx="179.2" cy="62.2" rx="2.6" ry="5.5" transform="rotate(-11.4 178.942 62.382)"/><ellipse cx="172.4" cy="44.6" rx="2.6" ry="5.5" transform="rotate(-11.4 172.126 44.5)"/><ellipse cx="165.5" cy="57.8" rx="2.6" ry="5.5" transform="rotate(-11.4 165.266 57.476)"/><path fill="#05773d" d="M7.8 92.3s14.4-51.8 64-32.1c-33.1 8.1-60 23.9-64 32.1z"/><path fill="#05773d" d="M52.2 93.5c.6-17.4 8.7-55.4 56-45-43.9 5.7-50.9 32-56 45z"/><path fill="#05773d" d="M10.9 49.5s36.5-33.4 60.3 10.9C44.8 49.8 17.9 45.2 10.9 49.5z"/><path fill="#05773d" d="M87.2 2.4S41.4 20.3 71.4 60.6c-.3-31.4 9-53.9 15.8-58.2z"/><path fill="#05773d" d="M71.5 61.2S64 4.6 121.4 10.1C90.7 24.3 72 51.7 71.5 61.2z"/><path d="M61.3 61.8S70 52 74.9 50.5c0 0-.2-3.9 1.8-6.5 0 0-4.6 2.9-5.1 5.9 0 0-2.8-3.4-2.5-6.4a15.5 15.5 0 0 0-1.7 7.5c.2 4.9-2.7-.6-8.8.3 3.5 2.6 5.5 4.4 5.5 6.2a16.8 16.8 0 0 0-8.9 2.8c2.7-.1 4.9.3 6.1 1.5z"/></symbol><symbol id="honeydew" viewBox="0 0 216 216"><path fill="#a7cf39" d="M59.1 12.9c45.2 74.2 57.7 83.9 148.7 139.7a7.6 7.6 0 0 1 2.1 11.2C115.6 284.1-84.6 123.6 47.5 11.1a7.7 7.7 0 0 1 11.6 1.8z"/><path fill="#d0dd9a" d="M63.9 20.7c40.5 66.5 51.7 75.2 133.3 125.2a7 7 0 0 1 1.9 10.2C114.5 264-65 119.9 53.5 19a6.9 6.9 0 0 1 10.4 1.7z"/><path fill="#fff" d="M70.1 29.5c37.3 60.1 47.9 65.4 117.6 110.4a6.1 6.1 0 0 1 1.7 8.9C114.8 244-43.5 117 61 28a6.1 6.1 0 0 1 9.1 1.5z" opacity=".79"/><path fill="#b77e38" d="M95.6 67.1c19.5 21.9 20.6 24.3 49.7 45.7a2.8 2.8 0 0 1 .7 3.8c-10.7 15.6-70.2-39.1-54.2-50.1a2.7 2.7 0 0 1 3.8.6z"/><ellipse cx="89.7" cy="72.9" fill="#f8dd8e" rx="2.6" ry="5.5" transform="rotate(-25.4 89.872 72.942)"/><ellipse cx="93.9" cy="68" fill="#f8dd8e" rx="2.6" ry="5.5" transform="rotate(-26 94.022 68.014)"/><ellipse cx="98.1" cy="79.1" fill="#f8dd8e" rx="2.6" ry="5.5" transform="rotate(-36 97.82 79.08)"/><ellipse cx="118.4" cy="91.6" fill="#f8dd8e" rx="2.6" ry="5.5" transform="rotate(-38.3 118.4 91.617)"/><ellipse cx="101.1" cy="92.4" fill="#f8dd8e" rx="2.6" ry="5.5" transform="rotate(-27.3 100.983 92.331)"/><ellipse cx="129.3" cy="108.6" fill="#f8dd8e" rx="2.6" ry="5.5" transform="rotate(-48.4 129.403 108.704)"/><ellipse cx="119.5" cy="109.1" fill="#f8dd8e" rx="2.6" ry="5.5" transform="rotate(-48.4 119.704 109.16)"/><ellipse cx="142.4" cy="115.7" fill="#f8dd8e" rx="2.6" ry="5.5" transform="rotate(-81.5 142.477 115.688)"/><ellipse cx="131.3" cy="116" fill="#f8dd8e" rx="2.6" ry="5.5" transform="rotate(-70.7 131.231 115.975)"/><ellipse cx="93.3" cy="83.9" fill="#f8dd8e" rx="2.6" ry="5.5" transform="matrix(.87 -.5 .5 .87 -29.43 57.87)"/><ellipse cx="108.7" cy="83.3" fill="#f8dd8e" rx="2.6" ry="5.5" transform="rotate(-45.7 108.696 83.25)"/><ellipse cx="107.5" cy="90.5" fill="#f8dd8e" rx="2.6" ry="5.5" transform="rotate(-45.7 107.32 90.494)"/><ellipse cx="110.2" cy="100.5" fill="#f8dd8e" rx="2.6" ry="5.5" transform="rotate(-45.7 110.103 100.47)"/><ellipse cx="118.4" cy="100.3" fill="#f8dd8e" rx="2.6" ry="5.5" transform="rotate(-45.7 118.285 100.285)"/><ellipse cx="102.3" cy="73.3" fill="#f8dd8e" rx="2.6" ry="5.5" transform="rotate(-41 102.171 73.258)"/><ellipse cx="128" cy="100" fill="#f8dd8e" rx="2.6" ry="5.5" transform="rotate(-53 128.104 99.932)"/><ellipse cx="138.1" cy="108" fill="#f8dd8e" rx="2.6" ry="5.5" transform="rotate(-53 138.186 108.089)"/></symbol><symbol id="insta" viewBox="0 0 216 216"><path fill="none" stroke="#000" stroke-miterlimit="10" stroke-width="16.99" d="M149.4 199.6H65.9a50.8 50.8 0 0 1-50.8-50.9V65.3a50.7 50.7 0 0 1 50.8-50.8h83.5a50.9 50.9 0 0 1 50.9 50.8v83.4a50.9 50.9 0 0 1-50.9 50.9z"/><circle cx="107.2" cy="107.6" r="43.4" fill="none" stroke="#000" stroke-miterlimit="10" stroke-width="16.99"/><circle cx="161.7" cy="52.8" r="13.1"/></symbol><symbol id="orange" viewBox="0 0 216 216"><path fill="#faa71a" d="M103.9 90.3L17.5 70.9s-9.6-.6-5.7-14.4c4.8-17 20-39.4 31-46.3s14.5.8 14.5.8l54.1 64.2s11.3 15-7.5 15.1zm34.4 12.6l71 52.8s9.9 4-.6 15.5c-12 13-34.3 27.9-47.1 29.8s-13-6.7-13-6.7l-23.3-80.7s-4.3-18.2 13-10.7zm-35.6 1.2l-79 40s-8 5.3-13.5-7.4C3.1 120.4.4 93.6 4.5 81.2s11.7-8.6 11.7-8.6l83.3 17.9s17.6 1.5 3.2 13.6zm8.5 8.9l-33.7 78.2s-2.5 9.5-15.3 2.6c-15.6-8.4-34-24.5-38.5-36.7s5.4-14.1 5.4-14.1l73.5-37s15.6-10.6 8.6 7zm11-1.3l24.2 85.2s3.1 8.5-9.9 11.9-37 0-49.8-4.9-6.2-13.2-6.2-13.2l33.5-78.3s4.4-15.2 8.2-.7z"/><ellipse cx="69.9" cy="56.6" fill="#fff" rx="3.1" ry="41" transform="rotate(-56.7 69.94 56.641)"/><ellipse cx="52.8" cy="68.8" fill="#fff" rx="3.2" ry="31.3" transform="rotate(-71 52.684 68.779)"/><ellipse cx="53.4" cy="97.5" fill="#fff" rx="3.1" ry="41" transform="rotate(-89.4 53.388 97.435)"/><ellipse cx="125" cy="160.4" fill="#fff" rx="3.1" ry="41" transform="rotate(-8.9 125.79 161.04)"/><ellipse cx="164.4" cy="146.4" fill="#fff" rx="3.1" ry="41" transform="rotate(-41.1 164.295 146.474)"/><ellipse cx="74.8" cy="142" fill="#fff" rx="41" ry="3.1" transform="rotate(-43.8 74.808 142.044)"/><ellipse cx="46" cy="114.4" fill="#fff" rx="31.3" ry="3.2" transform="rotate(-13.6 46.273 114.813)"/><ellipse cx="107.8" cy="165.5" fill="#fff" rx="31.3" ry="3.2" transform="rotate(-79.9 107.936 165.573)"/><ellipse cx="153.1" cy="158.4" fill="#fff" rx="3.2" ry="31.3" transform="rotate(-26.4 153.523 158.581)"/><ellipse cx="61.1" cy="29.4" fill="#fff" rx="2.5" ry="15.3" transform="rotate(-44 61.217 29.484)"/><ellipse cx="189" cy="151.8" fill="#fff" rx="2.5" ry="15.3" transform="rotate(-46.9 189.177 151.771)"/><ellipse cx="74.9" cy="168.8" fill="#fff" rx="15.3" ry="2.5" transform="rotate(-58.4 74.997 168.95)"/><ellipse cx="48.2" cy="144.1" fill="#fff" rx="15.3" ry="2.5" transform="rotate(-36.1 47.967 143.942)"/></symbol><symbol id="kiwi" viewBox="0 0 216 216"><path fill="#a8cf38" d="M148.8 96l62.7 77.6s9 7.2-5 16.7c-16.5 11.1-45.2 20.8-59.7 19.3s-12.3-11-12.3-11l-2.9-94.5s-1.9-30.9 17.2-8.1zm-34.1-16.1L11.6 91s-8.9 1.7-8.9-18.3 10.9-48.5 20.9-59.1 16.2-3.1 16.2-3.1l76.8 55s18.6 9-1.9 14.4zm-.5 9.9l-61.4 77.3s-5.8 9.9-20.7-3.3c-12.4-11-25-39.5-28.4-54.5s8.5-14 8.5-14l96.3-12.7s16.9-5.4 5.7 7.2zm15.6 7.8l1.2 99.7s2.9 11.4-14.3 10c-19.9-1.7-48.4-11.7-58.8-21.9S55 169.2 55 169.2l60.7-78.3s13-15.6 14.1 6.7z"/><path fill="none" stroke="#fff" stroke-miterlimit="10" stroke-width="1.88" d="M188.2 179.6L149 110.5m9 77.1l-10.8-58.7M111 184.6l11.8-71m-29.1 62.8l8.7-23.4m-28.5 13.4l42.4-57.7m-81.6 24.2l62.1-38.1m-46.7 54.7l21.5-20.1m-43.3-20.8l29.7-8.1M30.7 34.6l64.1 31.1m-69-2.4l43.8 4"/><ellipse cx="90.8" cy="61.1" rx="2.6" ry="5.5" transform="rotate(-70.4 90.78 61.065)"/><ellipse cx="109.7" cy="70.5" rx="2.6" ry="5.5" transform="rotate(-70.4 109.64 70.443)"/><ellipse cx="70.1" cy="63.7" rx="2.6" ry="5.5" transform="rotate(-80.3 70.12 63.717)"/><ellipse cx="26.6" cy="59.4" rx="2.6" ry="5.5" transform="rotate(-82.6 26.607 59.475)"/><ellipse cx="47.9" cy="50.6" rx="2.6" ry="5.5" transform="rotate(-71.6 47.861 50.538)"/><ellipse cx="41.8" cy="26.9" rx="2.6" ry="5.5" transform="rotate(-64.3 41.783 26.927)"/><ellipse cx="70.2" cy="45.4" rx="2.6" ry="5.5" transform="rotate(-66.5 70.233 45.392)"/><ellipse cx="44.9" cy="73.2" rx="5.5" ry="2.6"/><ellipse cx="19.7" cy="80.4" rx="5.5" ry="2.6"/><ellipse cx="84" cy="73.5" rx="5.5" ry="2.6"/><ellipse cx="84.8" cy="96.2" rx="5.5" ry="2.6" transform="rotate(-24.7 84.686 96.318)"/><ellipse cx="104.8" cy="89.8" rx="5.5" ry="2.6" transform="rotate(-24.7 104.749 89.942)"/><ellipse cx="71.8" cy="112.6" rx="5.5" ry="2.6" transform="rotate(-34.6 71.793 112.703)"/><ellipse cx="37.6" cy="140" rx="5.5" ry="2.6" transform="rotate(-37 37.613 139.867)"/><ellipse cx="46.7" cy="118.8" rx="5.5" ry="2.6" transform="rotate(-25.9 46.85 118.831)"/><ellipse cx="25.8" cy="106.1" rx="5.5" ry="2.6" transform="rotate(-18.7 25.606 105.896)"/><ellipse cx="59" cy="99.5" rx="5.5" ry="2.6" transform="rotate(-20.9 59.022 99.466)"/><ellipse cx="60.4" cy="137.1" rx="5.5" ry="2.6" transform="rotate(-44.3 60.436 137.142)"/><ellipse cx="47.3" cy="159.8" rx="5.5" ry="2.6" transform="rotate(-44.3 47.442 159.917)"/><ellipse cx="88.5" cy="110" rx="5.5" ry="2.6" transform="rotate(-44.3 88.675 109.979)"/><ellipse cx="108.9" cy="119.8" rx="5.5" ry="2.6" transform="rotate(-64.9 108.972 119.865)"/><ellipse cx="120" cy="102" rx="5.5" ry="2.6" transform="rotate(-64.9 120.115 101.993)"/><ellipse cx="109.5" cy="140.7" rx="5.5" ry="2.6" transform="rotate(-74.9 109.44 140.688)"/><ellipse cx="101.2" cy="183.7" rx="5.5" ry="2.6" transform="rotate(-77.2 101.124 183.684)"/><ellipse cx="94.3" cy="161.6" rx="5.5" ry="2.6" transform="rotate(-66.2 94.254 161.557)"/><ellipse cx="70.2" cy="165.5" rx="5.5" ry="2.6" transform="rotate(-58.9 70.304 165.474)"/><ellipse cx="91.3" cy="138.9" rx="5.5" ry="2.6" transform="rotate(-61.1 91.396 138.927)"/><ellipse cx="116.7" cy="166.7" rx="5.5" ry="2.6" transform="rotate(-84.6 116.62 166.684)"/><ellipse cx="121.4" cy="192.5" rx="5.5" ry="2.6" transform="rotate(-84.6 121.31 192.549)"/><ellipse cx="120.6" cy="127.9" rx="5.5" ry="2.6" transform="rotate(-84.6 120.52 127.846)"/><ellipse cx="144.1" cy="123.6" rx="2.6" ry="5.5" transform="rotate(-13.9 144.347 123.745)"/><ellipse cx="141.6" cy="102.7" rx="2.6" ry="5.5" transform="rotate(-13.9 141.875 103.046)"/><ellipse cx="157.8" cy="139.4" rx="2.6" ry="5.5" transform="rotate(-23.8 158.161 139.638)"/><ellipse cx="178.3" cy="178" rx="2.6" ry="5.5" transform="rotate(-26.2 178.266 178.062)"/><ellipse cx="159.1" cy="165.2" rx="2.6" ry="5.5" transform="rotate(-15.1 159.636 165.494)"/><ellipse cx="142.8" cy="183.4" rx="2.6" ry="5.5" transform="rotate(-7.9 142.336 182.99)"/><ellipse cx="142.5" cy="149.4" rx="2.6" ry="5.5" transform="rotate(-10.1 142.468 149.446)"/><ellipse cx="179.7" cy="155.1" rx="2.6" ry="5.5" transform="matrix(.83 -.55 .55 .83 -55.79 125.17)"/><ellipse cx="199.6" cy="172.2" rx="2.6" ry="5.5" transform="rotate(-33.6 199.245 172.011)"/><ellipse cx="158.3" cy="122.4" rx="2.6" ry="5.5" transform="rotate(-33.6 158.041 122.346)"/></symbol><symbol id="juice" viewBox="0 0 2448 2376"><ellipse cx="1225.3" cy="1190.8" fill="#fff" stroke="#09763d" stroke-miterlimit="10" stroke-width="35.34" rx="1188.7" ry="1152.9"/><path fill="#ffa70b" d="M1069.9 1112.3L437 628.6s-76.2-40.7 7.7-139C548.1 368.7 756 242.7 871.8 227.2S987.6 289 987.6 289l200.7 728.1s36 164.6-118.4 95.2zm234.3 231.6l382.3 698.9s65.7 69.3-63.5 123.8c-146.6 61.9-384.7 99.5-496.8 66.7s-80.8-103.5-80.8-103.5l112-746.9s33.8-165.1 146.8-39z"/><path fill="#ffa70b" d="M1008.5 1219.9l-795.9 30.8s-85.1 13-82.7-112c3.1-159 82.4-388.7 161.8-474.4s128.6-26.2 128.6-26.2l613.6 458.7s137.9 78.2-25.4 123.1zm35.9 105.2l-569.2 512.8s-55.3 68-134.2-36.5c-95.9-127-185.8-328.3-176.7-444.7s96.3-94.7 96.3-94.7l739.9-26.2s167.2-28.3 43.9 89.3zm94.8 30.7l-122 787.2s-6.2 80.9-125.7 59.7c-130.3-23.1-302.7-138.5-388.5-226.4-81.5-83.6-1.1-131.2-1.1-131.2l567.7-514.5s92.9-107.7 69.6 25.2z"/><path fill="#a6e019" d="M1201.8 1029l-189.3-773.8s-39.8-82.7 93.2-103.3c157.2-24.4 397.4 3 497.2 63.7s51.4 120.7 51.4 120.7l-300.6 692.8s-90.8 229.8-151.9-.1zm192.3 232.5l782.1 270.1s70.5 18.7 2.4 162.5-243.5 314-352.3 356.6-127.2-32.4-127.2-32.4l-368.2-659.5s-103.3-128 63.2-97.3zm36.9-70.1l706.6-349.3s75.2-52.2 138 94c52.2 121.6 46.8 370.4 20.1 490.2-25.5 114-109.3 72.7-109.3 72.7l-738.6-235.5s-140.9-19-16.8-72.1zm-86.5-109l330.7-724.6s17.7-92.7 137.2-23.4c137.7 79.8 310.1 248.5 350.9 358S2128.8 819 2128.8 819l-704.6 359.8s-147.6 68.3-79.7-96.4z"/><ellipse cx="919.2" cy="709.1" fill="#fff" rx="27.8" ry="369" transform="rotate(-32 920.452 709.664)"/><ellipse cx="733.2" cy="743.9" fill="#fff" rx="28.8" ry="281.8" transform="matrix(.69 -.72 .72 .69 -311.19 760.1)"/><ellipse cx="630.8" cy="980.9" fill="#fff" rx="27.8" ry="369" transform="rotate(-64.7 630.796 980.906)"/><ellipse cx="979.5" cy="1764.6" fill="#fff" rx="369" ry="27.8" transform="rotate(-74.3 978.531 1764.158)"/><ellipse cx="1353.9" cy="1798.2" fill="#fff" rx="27.8" ry="369" transform="rotate(-16.4 1353.829 1798.113)"/><ellipse cx="637.9" cy="1425.1" fill="#fff" rx="369" ry="27.8" transform="rotate(-19.1 639.377 1427.484)"/><ellipse cx="506.4" cy="1090.9" fill="#fff" rx="28.8" ry="281.8" transform="rotate(-79 505.841 1090.66)"/><ellipse cx="819.7" cy="1741.6" fill="#fff" rx="281.8" ry="28.8" transform="rotate(-55.3 818.595 1740.797)"/><ellipse cx="1217" cy="1853.7" fill="#fff" rx="28.8" ry="281.8" transform="rotate(-1.8 1193.96 1817.503)"/><ellipse cx="949.3" cy="453.7" fill="#fff" rx="22.2" ry="137.7" transform="rotate(-19.4 947.068 453.01)"/><ellipse cx="1534.8" cy="1933.9" fill="#fff" rx="22.2" ry="137.7" transform="rotate(-22.3 1531.146 1930.697)"/><ellipse cx="538.5" cy="1645.2" fill="#fff" rx="137.7" ry="22.2" transform="rotate(-33.8 537.042 1643.314)"/><ellipse cx="412.7" cy="1342.5" fill="#fff" rx="137.7" ry="22.2" transform="rotate(-11.4 411.257 1338.75)"/><path fill="none" stroke="#fff" stroke-miterlimit="10" stroke-width="15" d="M1201.3 290.9l48.5 632.8m196.8-587.4l-121.1 460.3M1776.7 518l-327.1 472.4m424-354.3l-142.4 139.3m251.4 0l-502.7 272.5m672.3 103l-578.4 63.5m523.9-236.2l-224.1 72.7m242.2 296.8l-242.2-42.4m-27 568.9l-357.3-442.1m490.3 252.2l-302.9-178.7"/></symbol><symbol id="profile" viewBox="0 0 216 216"><path d="M195.6 209.6H20.4c-4.2 0-7.4-3.2-7.4-7.4 0-52.6 33.7-81.6 95-81.6s95 29 95 81.6c.1 4.2-3.2 7.4-7.4 7.4zM108 109.7c-27.3 0-49.4-24.1-49.4-53.6C58.7 27.3 80 5.7 108 5.7s49.4 21.6 49.4 50.4c0 29.5-22.1 53.6-49.4 53.6z"/></symbol><symbol id="mango" viewBox="0 0 216 216"><defs><linearGradient id="a" x1="3.42" x2="210.19" y1="109.18" y2="109.18" gradientUnits="userSpaceOnUse"><stop offset="0" stop-color="#a7cf39"/><stop offset=".01" stop-color="#a8cd39"/><stop offset=".19" stop-color="#bd9a33"/><stop offset=".37" stop-color="#cf702e"/><stop offset=".54" stop-color="#dc502b"/><stop offset=".71" stop-color="#e63928"/><stop offset=".87" stop-color="#ec2b27"/><stop offset="1" stop-color="#ee2626"/></linearGradient></defs><path fill="#f7d21e" d="M59.3 12.3c45.1 74.2 57.6 83.9 148.6 139.6a7.7 7.7 0 0 1 2.1 11.3C115.7 283.5-84.4 122.9 47.7 10.4a7.7 7.7 0 0 1 11.6 1.9z"/><path fill="url(#a)" d="M48.9 10c-95.1 101.9 38.7 245.4 161.3 153.5C108.8 291.9-84.7 114.3 48.9 10z"/></symbol><symbol id="lime" viewBox="0 0 216 216"><path fill="#a7cf39" d="M104.1 88.6L17.7 69.1s-9.6-.5-5.7-14.4c4.8-17 20-39.4 31-46.3s14.5.8 14.5.8l54.2 64.3s11.2 15-7.6 15.1zm34.5 12.6l71.1 52.9s9.8 3.9-.7 15.4c-11.9 13.1-34.3 28-47.1 29.8s-13-6.7-13-6.7l-23.4-80.7s-4.2-18.2 13.1-10.7z"/><path fill="#a7cf39" d="M102.9 102.4l-79 40.1s-8 5.2-13.6-7.5C3.2 118.8.6 91.9 4.6 79.5s11.8-8.6 11.8-8.6l83.4 17.8s17.5 1.5 3.1 13.7zm8.5 8.9l-33.7 78.3s-2.4 9.5-15.3 2.6c-15.5-8.4-34-24.6-38.5-36.8s5.4-14 5.4-14l73.5-37.1s15.6-10.6 8.6 7zm11-1.3l24.3 85.3s3.1 8.4-10 11.9-37 0-49.7-4.9-6.3-13.2-6.3-13.2l33.5-78.4s4.4-15.2 8.2-.7z"/><ellipse cx="70.2" cy="54.9" fill="#fff" rx="3.1" ry="41.1" transform="rotate(-56.7 70.184 54.859)"/><ellipse cx="53" cy="67" fill="#fff" rx="3.2" ry="31.3" transform="rotate(-71 52.953 67.067)"/><ellipse cx="53.6" cy="95.8" fill="#fff" rx="3.1" ry="41.1" transform="rotate(-89.4 53.58 95.725)"/><ellipse cx="125.3" cy="158.8" fill="#fff" rx="3.1" ry="41.1" transform="rotate(-8.9 125.89 159.755)"/><ellipse cx="164.7" cy="144.8" fill="#fff" rx="3.1" ry="41.1" transform="rotate(-41.1 164.628 144.773)"/><ellipse cx="75" cy="140.3" fill="#fff" rx="41.1" ry="3.1" transform="rotate(-43.8 75.035 140.401)"/><ellipse cx="46.2" cy="112.7" fill="#fff" rx="31.3" ry="3.2" transform="rotate(-13.6 46.473 113.136)"/><ellipse cx="108.1" cy="163.9" fill="#fff" rx="31.3" ry="3.2" transform="rotate(-79.9 108.179 163.949)"/><ellipse cx="153.4" cy="156.7" fill="#fff" rx="3.2" ry="31.3" transform="rotate(-26.4 153.66 157.039)"/><ellipse cx="61.3" cy="27.7" fill="#fff" rx="2.5" ry="15.3" transform="rotate(-44 61.372 27.675)"/><ellipse cx="189.3" cy="150.1" fill="#fff" rx="2.5" ry="15.3" transform="rotate(-46.9 189.482 150.122)"/><ellipse cx="75.2" cy="167.2" fill="#fff" rx="15.3" ry="2.5" transform="rotate(-58.4 75.21 167.309)"/><ellipse cx="48.4" cy="142.4" fill="#fff" rx="15.3" ry="2.5" transform="rotate(-36.1 48.16 142.308)"/></symbol><symbol id="lemon" viewBox="0 0 216 216"><path fill="#ece842" d="M104.2 88.9L17.8 69.4s-9.6-.5-5.7-14.4c4.8-17 20-39.4 31-46.4s14.6.9 14.6.9l54.1 64.3s11.3 15-7.6 15.1zm34.5 12.5l71.1 52.9s9.9 4-.6 15.5c-12 13.1-34.3 27.9-47.2 29.8s-12.9-6.7-12.9-6.7l-23.4-80.7s-4.3-18.3 13-10.8z"/><path fill="#ece842" d="M103 102.6l-79 40.1s-8 5.3-13.5-7.4C3.4 119 .7 92.1 4.8 79.8s11.7-8.6 11.7-8.6L99.9 89s17.6 1.5 3.1 13.6zm8.6 9l-33.8 78.3s-2.4 9.4-15.2 2.5c-15.6-8.3-34.1-24.5-38.5-36.7s5.3-14 5.3-14l73.6-37.1s15.6-10.6 8.6 7zm11-1.3l24.2 85.3s3.1 8.4-9.9 11.8-37.1.1-49.8-4.8-6.2-13.2-6.2-13.2l33.5-78.4s4.4-15.2 8.2-.7z"/><ellipse cx="70.3" cy="55.2" fill="#fff" rx="3.1" ry="41.1" transform="rotate(-56.7 70.269 55.144)"/><ellipse cx="53.1" cy="67.3" fill="#fff" rx="3.2" ry="31.3" transform="rotate(-71 53.113 67.287)"/><ellipse cx="53.8" cy="96" fill="#fff" rx="3.1" ry="41.1" transform="rotate(-89.4 53.733 96.076)"/><ellipse cx="125.4" cy="159.1" fill="#fff" rx="3.1" ry="41.1" transform="rotate(-8.9 125.89 159.755)"/><ellipse cx="164.8" cy="145.1" fill="#fff" rx="3.1" ry="41.1" transform="rotate(-41.1 164.712 144.957)"/><ellipse cx="75.1" cy="140.6" fill="#fff" rx="41.1" ry="3.1" transform="rotate(-43.8 75.234 140.625)"/><ellipse cx="46.3" cy="112.9" fill="#fff" rx="31.3" ry="3.2" transform="rotate(-13.6 46.473 113.136)"/><ellipse cx="108.2" cy="164.2" fill="#fff" rx="31.3" ry="3.2" transform="rotate(-79.9 108.308 164.158)"/><ellipse cx="153.6" cy="157" fill="#fff" rx="3.2" ry="31.3" transform="rotate(-26.4 153.823 157.302)"/><ellipse cx="61.5" cy="27.9" fill="#fff" rx="2.5" ry="15.3" transform="rotate(-44 61.57 27.899)"/><ellipse cx="189.4" cy="150.4" fill="#fff" rx="2.5" ry="15.3" transform="rotate(-46.9 189.612 150.453)"/><ellipse cx="75.3" cy="167.5" fill="#fff" rx="15.3" ry="2.5" transform="rotate(-58.4 75.429 167.548)"/><ellipse cx="48.5" cy="142.7" fill="#fff" rx="15.3" ry="2.5" transform="rotate(-36.1 48.417 142.561)"/></symbol></svg>