<svg xmlns="http://www.w3.org/2000/svg"><symbol id="cart" viewBox="0 0 80.4 80.1"><path fill="#fff" stroke="#000" stroke-miterlimit="10" stroke-width="1.55" d="M17.9 24.6h51.6L60 55.3H28L17.9 24.6z"/><circle cx="34.4" cy="61.4" r="5.2" fill="#fff" stroke="#000" stroke-miterlimit="10" stroke-width="1.85"/><circle cx="55.6" cy="61.4" r="5.2" fill="#fff" stroke="#000" stroke-miterlimit="10" stroke-width="1.85"/><path fill="#fff" stroke="#000" stroke-miterlimit="10" stroke-width="1.85" d="M17.9 24.6l-9.1-8.2M24.9 29h37.6l-6.9 21.2H32.2L24.9 29z"/></symbol><symbol id="gem" viewBox="0 0 80.4 80.1"><path fill="#fff" stroke="#000" stroke-miterlimit="10" stroke-width="1.15" d="M21.4 25.4v31.7L41.6 77 59 57.7V25.4L40.2 3 21.4 25.4z"/><path fill="#fff" stroke="#000" stroke-miterlimit="10" stroke-width="1.15" d="M40.2 21.8v39.4l-18.8-4.1V25.4l18.8-3.6zM59 25.4l-18.8-3.6v39.4L59 57.7V25.4z"/><path fill="#fff" stroke="#000" stroke-miterlimit="10" stroke-width="1.15" d="M41.6 76.5l-1.4-15.3-18.3-4c-.1 0-.2.1-.1.3l19.4 19.1a.2.2 0 0 0 .4-.1zm-1.4-54.7V3.5a.2.2 0 0 0-.3-.1L21.7 25c-.1.1 0 .3.2.3z"/></symbol><symbol id="gem2" viewBox="0 0 80.4 80.1"><path fill="#fff" stroke="#000" stroke-miterlimit="10" stroke-width="1.42" d="M40.5 9.7L13.8 42.3l26.7 28L66.6 40 40.5 9.7z"/><path fill="#fff" stroke="#000" stroke-miterlimit="10" stroke-width="1.42" d="M40.5 40h25.7c.1 0 .2-.1.1-.3L40.8 10a.2.2 0 0 0-.3.1zm-26.4 2.3l26.3-2.2c.1 0 .1 0 .1.1V70c0 .1-.1.2-.2.1L14 42.5c-.1-.1 0-.2.1-.2zM66 40.7L40.8 70a.2.2 0 0 1-.3-.1V40.2a.2.2 0 0 1 .2-.2h25a.5.5 0 0 1 .3.7z"/><path fill="#fff" stroke="#000" stroke-miterlimit="10" stroke-width="1.42" d="M40.4 9.9L14 42.1c-.1.1 0 .2.1.2L40.5 40V10z"/></symbol><symbol id="gem3" viewBox="0 0 80.4 80.1"><path fill="#fff" stroke="#000" stroke-miterlimit="10" stroke-width="1.68" d="M34.9 55.3l-8.3-11.8-9.9-14.3 1.6-17.8h16.6L54.6 39v16.3H34.9z"/><path fill="#fff" stroke="#000" stroke-miterlimit="10" stroke-width="1.68" d="M9.6 60.3l17-16.8 8.3 11.8h19.7L38.8 72 9.6 60.3z"/><path fill="#fff" stroke="#000" stroke-miterlimit="10" stroke-width="1.68" d="M46 27.1l15.7-15.7L70.8 39 54.6 55.3V39L46 27.1zm-27.5-15l2.5 8 18.2 28 14.5 6.8a.2.2 0 0 1-.1.4H34.9L16.7 29.2l1.5-17.1c0-.1.2-.2.3 0zM10 60.3l28.1 2.9 16.2-7.7c0-.1.1 0 .1.1L38.8 72 10 60.5a.1.1 0 0 1 0-.2z"/><path fill="#fff" stroke="#000" stroke-miterlimit="10" stroke-width="1.68" d="M61.8 12.5l2.4 25.6-9.5 16.8c0 .1.1.2.2.1l15.9-16-8.7-26.5c-.1-.2-.3-.1-.3 0z"/></symbol><symbol id="heart" viewBox="0 0 80.4 80.1"><path fill="#fff" stroke="#000" stroke-miterlimit="10" stroke-width="1.57" d="M41.4 66.7s30.7-10 28.7-38.1c-4-23.6-28.5-8.2-29.9 5 0-13.2-27.7-28.9-29.8-4.4-3.4 28.5 31 37.5 31 37.5z"/></symbol><symbol id="search" viewBox="0 0 80.4 80.1"><circle cx="40" cy="30.4" r="22.3" fill="#fff" stroke="#000" stroke-miterlimit="10" stroke-width="1.88"/><circle cx="40" cy="30.4" r="18.4" fill="#fff" stroke="#000" stroke-miterlimit="10" stroke-width="1.55"/><path fill="#fff" stroke="#000" stroke-miterlimit="10" stroke-width="1.55" d="M44.1 52.6l10.6 20.1c2.3 4.1 9.5.8 7.6-3.1l-9.8-20.8c-1.9 2-4.9 3.1-8.4 3.8z"/></symbol></svg>