<svg id="_256px" data-name="256px" xmlns="http://www.w3.org/2000/svg" width="256" height="256" viewBox="0 0 256 256"><title>logo</title><path d="M103.8,142.2c-7.1-31.9-14.3-63.7-21.4-95.6L108.1,3l44.5,35.9-11.9,99.8,22.7,7.7V81.3l32.1-21.4,21,39.4-31.7,58.3,21.8,10.3-.4,28.2,22.7,34.7L195,247.9l-47.1,6-96.3-3.4L25.9,228.7l24-30.9-2.6-26.1,14.5-15L28.9,118.6,39.1,75.3l33,12.5,10.3,59.1Z" fill="#838bc5" stroke="#000" stroke-miterlimit="10" stroke-width="1.05"/><polygon points="152.6 38.9 118.7 49.2 123.5 141.7 140.7 138.7 152.6 38.9" fill="#65c8d0" stroke="#000" stroke-miterlimit="10" stroke-width="1.05"/><polygon points="108.1 3 118.7 49.2 152.6 38.9 108.1 3" fill="#ba9bc9" stroke="#000" stroke-miterlimit="10" stroke-width="1.05"/><polygon points="82.4 46.6 118.7 49.2 108.1 3 82.4 46.6" fill="#65c8d0" stroke="#000" stroke-miterlimit="10" stroke-width="1.05"/><polygon points="163.4 81.3 189.5 97.3 171.4 155 163.4 146.4 163.4 81.3" fill="#ba9bc9" stroke="#000" stroke-miterlimit="10" stroke-width="1.05"/><polygon points="195.5 59.9 189.5 97.3 163.4 81.3 195.5 59.9" fill="#65c8d0" stroke="#000" stroke-miterlimit="10" stroke-width="1.05"/><polygon points="216.5 99.3 189.5 97.3 195.5 59.9 216.5 99.3" fill="#ba9bc9" stroke="#000" stroke-miterlimit="10" stroke-width="1.05"/><polygon points="39.1 75.3 55.6 113.9 72.1 87.8 39.1 75.3" fill="#65c8d0" stroke="#000" stroke-miterlimit="10" stroke-width="1.05"/><polygon points="82.4 146.9 80.2 155 55.6 113.9 72.1 87.8 82.4 146.9" fill="#ba9bc9" stroke="#000" stroke-miterlimit="10" stroke-width="1.05"/><polygon points="28.9 118.6 55.6 113.9 39.1 75.3 28.9 118.6" fill="#ba9bc9" stroke="#000" stroke-miterlimit="10" stroke-width="1.05"/><polyline points="47.3 171.7 97.2 186.9 130.4 168.5 167.6 193.9 206.6 167.9 206.2 196.1" fill="none" stroke="#000" stroke-miterlimit="10" stroke-width="1.05"/><polygon points="124.5 253.1 97.2 186.9 130.4 168.5 124.5 253.1" fill="#65c8d0" stroke="#000" stroke-miterlimit="10" stroke-width="1.05"/><polygon points="167.6 193.9 124.5 253.1 130.4 168.5 167.6 193.9" fill="#ba9bc9" stroke="#000" stroke-miterlimit="10" stroke-width="1.05"/><polygon points="195 247.9 186 212.7 228.9 230.8 195 247.9" fill="#65c8d0" stroke="#000" stroke-miterlimit="10" stroke-width="1.05"/><polygon points="51.6 250.5 69 212.7 25.9 228.7 51.6 250.5" fill="#ba9bc9" stroke="#000" stroke-miterlimit="10" stroke-width="1.05"/></svg>