<svg xmlns="http://www.w3.org/2000/svg" width="720" height="3in" viewBox="0 0 540 216"><path fill="#231f20" d="M20.7 183.1h5.8c7.7 0 10-2.7 10-11.5V57.4h25v114.4c0 21.9-8.3 31.4-27.9 31.4H20.7zm15-166.4h26.6v23.5H35.7zm145.2 40.7v108h-21.2l-.9-15.2c-8.9 12.3-19.5 17.7-33.9 17.7-22.6 0-34.3-13.3-34.3-39.1V57.4h25v69.1c0 13.5 5 19.3 15.6 19.3s18.7-5.8 24.7-18.7V57.4zm29.5-40.7H237v23.5h-26.6zm.8 40.7h25v108h-25zm50.8 64.5v-21.2c0-30.2 15.8-45.8 46.2-45.8 28.7 0 44.1 14 44.7 41.9H329c-1.1-14.6-7.3-21.1-20.6-21.1S287 83.4 287 101.1v20.6c0 17.7 6.8 25.4 21.4 25.4s19.7-6.5 20.6-21.2h23.9c-.6 27.8-16 42-44.7 42-30.4 0-46.2-15.6-46.2-46zm135.8.2c0 17.5 7.1 25.6 23.1 25.6 13.1 0 20.2-5.6 21.2-15H466c-1.4 23.1-17.4 35.2-45.1 35.2-31.6 0-48-15.8-48-46v-21.2c0-29.7 16.2-45.8 46.8-45.8s47 16.3 47 46v17.9h-68.9zm0-21.8h45.1c0-17.5-6.8-25.2-22.4-25.2s-22.7 7.7-22.7 25.2zm93.2 38h27v27.1h-27z"/></svg>