<svg xmlns="http://www.w3.org/2000/svg" width="64" height="64" viewBox="0 0 64 64"><title>logo-64</title><g id="_64px" data-name="64px"><path d="M26.4,35.3,21.1,11.7,27.4.9l11,8.9L35.5,34.5l5.6,1.9V20.3L49,15l5.2,9.8L46.4,39.1l5.4,2.6v7l5.6,8.5-8.4,4.3L37.3,63l-23.8-.9L7.1,56.7,13,49.1l-.6-6.5L16,38.9,7.9,29.5l2.5-10.7,8.1,3.1,2.6,14.6Z" fill="#838bc5" stroke="#000" stroke-miterlimit="10" stroke-width="0.26"/><polygon points="38.4 9.8 30.1 12.4 31.2 35.2 35.5 34.5 38.4 9.8" fill="#65c8d0" stroke="#000" stroke-miterlimit="10" stroke-width="0.26"/><polygon points="27.4 0.9 30.1 12.4 38.4 9.8 27.4 0.9" fill="#ba9bc9" stroke="#000" stroke-miterlimit="10" stroke-width="0.26"/><polygon points="21.1 11.7 30.1 12.4 27.4 0.9 21.1 11.7" fill="#65c8d0" stroke="#000" stroke-miterlimit="10" stroke-width="0.26"/><polygon points="41.1 20.3 47.5 24.3 43.1 38.5 41.1 36.4 41.1 20.3" fill="#ba9bc9" stroke="#000" stroke-miterlimit="10" stroke-width="0.26"/><polygon points="49 15 47.5 24.3 41.1 20.3 49 15" fill="#65c8d0" stroke="#000" stroke-miterlimit="10" stroke-width="0.26"/><polygon points="54.2 24.8 47.5 24.3 49 15 54.2 24.8" fill="#ba9bc9" stroke="#000" stroke-miterlimit="10" stroke-width="0.26"/><polygon points="10.4 18.8 14.5 28.3 18.5 21.9 10.4 18.8" fill="#65c8d0" stroke="#000" stroke-miterlimit="10" stroke-width="0.26"/><polygon points="21.1 36.5 20.5 38.5 14.5 28.3 18.5 21.9 21.1 36.5" fill="#ba9bc9" stroke="#000" stroke-miterlimit="10" stroke-width="0.26"/><polygon points="7.9 29.5 14.5 28.3 10.4 18.8 7.9 29.5" fill="#ba9bc9" stroke="#000" stroke-miterlimit="10" stroke-width="0.26"/><polyline points="12.4 42.6 24.7 46.4 32.9 41.8 42.1 48.1 51.8 41.7 51.7 48.7" fill="none" stroke="#000" stroke-miterlimit="10" stroke-width="0.26"/><polygon points="31.5 62.8 24.7 46.4 32.9 41.8 31.5 62.8" fill="#65c8d0" stroke="#000" stroke-miterlimit="10" stroke-width="0.26"/><polygon points="42.1 48.1 31.5 62.8 32.9 41.8 42.1 48.1" fill="#ba9bc9" stroke="#000" stroke-miterlimit="10" stroke-width="0.26"/><polygon points="48.9 61.5 46.7 52.8 57.3 57.2 48.9 61.5" fill="#65c8d0" stroke="#000" stroke-miterlimit="10" stroke-width="0.26"/><polygon points="13.5 62.1 17.8 52.8 7.1 56.7 13.5 62.1" fill="#ba9bc9" stroke="#000" stroke-miterlimit="10" stroke-width="0.26"/></g></svg>