<svg xmlns="http://www.w3.org/2000/svg" width="16" height="16" viewBox="0 0 16 16"><title>logo-16</title><g id="_16px" data-name="16px"><path d="M6.6,8.8,5.3,3,6.9.3,9.6,2.5,8.9,8.6l1.4.5v-4l1.9-1.3,1.3,2.4L11.6,9.8l1.3.6v1.7l1.4,2.2-2.1,1-2.9.4-5.9-.2L1.8,14.1l1.5-1.8V10.7l.8-1L2,7.4l.7-2.7,2,.8.6,3.6Z" fill="#838bc5" stroke="#000" stroke-miterlimit="10" stroke-width="0.06"/><polygon points="9.6 2.5 7.5 3.1 7.8 8.8 8.9 8.6 9.6 2.5" fill="#65c8d0" stroke="#000" stroke-miterlimit="10" stroke-width="0.06"/><polygon points="6.9 0.3 7.5 3.1 9.6 2.5 6.9 0.3" fill="#ba9bc9" stroke="#000" stroke-miterlimit="10" stroke-width="0.06"/><polygon points="5.3 3 7.5 3.1 6.9 0.3 5.3 3" fill="#65c8d0" stroke="#000" stroke-miterlimit="10" stroke-width="0.06"/><polygon points="10.3 5.1 11.9 6.1 10.8 9.6 10.3 9.1 10.3 5.1" fill="#ba9bc9" stroke="#000" stroke-miterlimit="10" stroke-width="0.06"/><polygon points="12.2 3.8 11.9 6.1 10.3 5.1 12.2 3.8" fill="#65c8d0" stroke="#000" stroke-miterlimit="10" stroke-width="0.06"/><polygon points="13.5 6.2 11.9 6.1 12.2 3.8 13.5 6.2" fill="#ba9bc9" stroke="#000" stroke-miterlimit="10" stroke-width="0.06"/><polygon points="2.7 4.7 3.7 7.1 4.7 5.5 2.7 4.7" fill="#65c8d0" stroke="#000" stroke-miterlimit="10" stroke-width="0.06"/><polygon points="5.3 9.1 5.2 9.6 3.7 7.1 4.7 5.5 5.3 9.1" fill="#ba9bc9" stroke="#000" stroke-miterlimit="10" stroke-width="0.06"/><polygon points="2 7.4 3.7 7.1 2.7 4.7 2 7.4" fill="#ba9bc9" stroke="#000" stroke-miterlimit="10" stroke-width="0.06"/><polyline points="3.2 10.7 6.2 11.6 8.2 10.5 10.5 12 12.9 10.4 12.9 12.1" fill="none" stroke="#000" stroke-miterlimit="10" stroke-width="0.06"/><polygon points="7.9 15.6 6.2 11.6 8.2 10.5 7.9 15.6" fill="#65c8d0" stroke="#000" stroke-miterlimit="10" stroke-width="0.06"/><polygon points="10.5 12 7.9 15.6 8.2 10.5 10.5 12" fill="#ba9bc9" stroke="#000" stroke-miterlimit="10" stroke-width="0.06"/><polygon points="12.2 15.3 11.7 13.2 14.3 14.3 12.2 15.3" fill="#65c8d0" stroke="#000" stroke-miterlimit="10" stroke-width="0.06"/><polygon points="3.4 15.5 4.5 13.2 1.8 14.1 3.4 15.5" fill="#ba9bc9" stroke="#000" stroke-miterlimit="10" stroke-width="0.06"/></g></svg>