<svg xmlns="http://www.w3.org/2000/svg" width="32" height="32" viewBox="0 0 32 32"><title>logo-32</title><g id="_32px" data-name="32px"><path d="M13.4,17.7,10.8,5.9,13.9.5l5.5,4.4L18,17.3l2.8.9v-8l3.9-2.7,2.6,4.9-3.9,7.2,2.7,1.3v3.5l2.8,4.3-4.2,2.1-5.8.7-12-.4L3.8,28.4l2.9-3.8-.3-3.3,1.8-1.8L4.1,14.8,5.4,9.4,9.5,11l1.3,7.3Z" fill="#838bc5" stroke="#000" stroke-miterlimit="10" stroke-width="0.13"/><polygon points="19.4 4.9 15.2 6.2 15.8 17.6 18 17.3 19.4 4.9" fill="#65c8d0" stroke="#000" stroke-miterlimit="10" stroke-width="0.13"/><polygon points="13.9 0.5 15.2 6.2 19.4 4.9 13.9 0.5" fill="#ba9bc9" stroke="#000" stroke-miterlimit="10" stroke-width="0.13"/><polygon points="10.8 5.9 15.2 6.2 13.9 0.5 10.8 5.9" fill="#65c8d0" stroke="#000" stroke-miterlimit="10" stroke-width="0.13"/><polygon points="20.8 10.2 24 12.2 21.8 19.3 20.8 18.2 20.8 10.2" fill="#ba9bc9" stroke="#000" stroke-miterlimit="10" stroke-width="0.13"/><polygon points="24.7 7.5 24 12.2 20.8 10.2 24.7 7.5" fill="#65c8d0" stroke="#000" stroke-miterlimit="10" stroke-width="0.13"/><polygon points="27.3 12.4 24 12.2 24.7 7.5 27.3 12.4" fill="#ba9bc9" stroke="#000" stroke-miterlimit="10" stroke-width="0.13"/><polygon points="5.4 9.4 7.4 14.2 9.5 11 5.4 9.4" fill="#65c8d0" stroke="#000" stroke-miterlimit="10" stroke-width="0.13"/><polygon points="10.8 18.3 10.5 19.3 7.4 14.2 9.5 11 10.8 18.3" fill="#ba9bc9" stroke="#000" stroke-miterlimit="10" stroke-width="0.13"/><polygon points="4.1 14.8 7.4 14.2 5.4 9.4 4.1 14.8" fill="#ba9bc9" stroke="#000" stroke-miterlimit="10" stroke-width="0.13"/><polyline points="6.4 21.3 12.6 23.2 16.7 20.9 21.3 24.1 26.1 20.9 26.1 24.4" fill="none" stroke="#000" stroke-miterlimit="10" stroke-width="0.13"/><polygon points="16 31.4 12.6 23.2 16.7 20.9 16 31.4" fill="#65c8d0" stroke="#000" stroke-miterlimit="10" stroke-width="0.13"/><polygon points="21.3 24.1 16 31.4 16.7 20.9 21.3 24.1" fill="#ba9bc9" stroke="#000" stroke-miterlimit="10" stroke-width="0.13"/><polygon points="24.7 30.8 23.6 26.4 28.9 28.7 24.7 30.8" fill="#65c8d0" stroke="#000" stroke-miterlimit="10" stroke-width="0.13"/><polygon points="6.9 31.1 9.1 26.4 3.8 28.4 6.9 31.1" fill="#ba9bc9" stroke="#000" stroke-miterlimit="10" stroke-width="0.13"/></g></svg>